HIERARCHY
ROOT Hips
{
	OFFSET 0.000000 0.000000 0.000000
	CHANNELS 6 Xposition Yposition Zposition Xrotation Yrotation Zrotation
	JOINT LeftUpLeg_virtual
	{
		OFFSET 0.000000 0.000000 0.000000
		CHANNELS 3 Xrotation Yrotation Zrotation
		JOINT LeftUpLeg
		{
			OFFSET 10.205400 -3.823500 0.155100
			CHANNELS 3 Xrotation Yrotation Zrotation
			JOINT LeftLeg
			{
				OFFSET 0.708757 -12.982077 0.567790
				CHANNELS 3 Xrotation Yrotation Zrotation
				JOINT LeftFoot
				{
					OFFSET -0.708756 -10.717838 -2.184338
					CHANNELS 3 Xrotation Yrotation Zrotation
					JOINT LeftToeBase
					{
						OFFSET 0.108149 -7.191104 7.560241
						CHANNELS 3 Xrotation Yrotation Zrotation
						JOINT LeftToe_End
						{
							OFFSET 0.070230 0.081724 4.490308
							CHANNELS 3 Xrotation Yrotation Zrotation
							End Site
							{
								OFFSET 0 0 0
							}
						}
					}
				}
			}
		}
	}
	JOINT RightUpLeg_virtual
	{
		OFFSET 0.000000 0.000000 0.000000
		CHANNELS 3 Xrotation Yrotation Zrotation
		JOINT RightUpLeg
		{
			OFFSET -10.205400 -3.823500 0.005500
			CHANNELS 3 Xrotation Yrotation Zrotation
			JOINT RightLeg
			{
				OFFSET -0.708756 -12.982134 0.610632
				CHANNELS 3 Xrotation Yrotation Zrotation
				JOINT RightFoot
				{
					OFFSET 0.708754 -10.717769 -1.945823
					CHANNELS 3 Xrotation Yrotation Zrotation
					JOINT RightToeBase
					{
						OFFSET -0.108140 -7.191069 7.372968
						CHANNELS 3 Xrotation Yrotation Zrotation
						JOINT RightToe_End
						{
							OFFSET -0.070227 0.081735 4.479403
							CHANNELS 3 Xrotation Yrotation Zrotation
							End Site
							{
								OFFSET 0 0 0
							}
						}
					}
				}
			}
		}
	}
	JOINT Spine_virtual
	{
		OFFSET 0.000000 0.000000 0.000000
		CHANNELS 3 Xrotation Yrotation Zrotation
		JOINT Spine
		{
			OFFSET 0.000000 6.876099 0.125700
			CHANNELS 3 Xrotation Yrotation Zrotation
			JOINT Spine1
			{
				OFFSET 0.000000 5.730043 0.104720
				CHANNELS 3 Xrotation Yrotation Zrotation
				JOINT Spine1_split
				{
					OFFSET 0.000000 5.730043 0.104720
					CHANNELS 3 Xrotation Yrotation Zrotation
					JOINT Spine2
					{
						OFFSET 0.000000 5.730043 0.104720
						CHANNELS 3 Xrotation Yrotation Zrotation
						JOINT Neck_virtual
						{
							OFFSET 0.000000 0.000000 0.000000
							CHANNELS 3 Xrotation Yrotation Zrotation
							JOINT Neck
							{
								OFFSET 0.000000 10.314075 0.188496
								CHANNELS 3 Xrotation Yrotation Zrotation
								JOINT Head
								{
									OFFSET 0.000000 7.643700 -2.377400
									CHANNELS 3 Xrotation Yrotation Zrotation
									JOINT HeadTop_End
									{
										OFFSET 0.000000 43.788605 -13.619600
										CHANNELS 3 Xrotation Yrotation Zrotation
										End Site
										{
											OFFSET 0 0 0
										}
									}
								}
							}
						}
						JOINT LeftShoulder_virtual
						{
							OFFSET 0.000000 0.000000 0.000000
							CHANNELS 3 Xrotation Yrotation Zrotation
							JOINT LeftShoulder
							{
								OFFSET 2.196100 4.412489 0.087492
								CHANNELS 3 Xrotation Yrotation Zrotation
								JOINT LeftShoulder_split
								{
									OFFSET 2.196100 4.412489 0.087492
									CHANNELS 3 Xrotation Yrotation Zrotation
									JOINT LeftArm
									{
										OFFSET 8.771219 -2.981674 -0.026999
										CHANNELS 3 Xrotation Yrotation Zrotation
										JOINT LeftForeArm
										{
											OFFSET 8.512804 0.000000 -0.000000
											CHANNELS 3 Xrotation Yrotation Zrotation
											JOINT LeftHand
											{
												OFFSET 18.484802 0.000000 -0.000000
												CHANNELS 3 Xrotation Yrotation Zrotation
												End Site
												{
													OFFSET 0 0 0
												}
											}
										}
									}
								}
							}
						}
						JOINT RightShoulder_virtual
						{
							OFFSET 0.000000 0.000000 0.000000
							CHANNELS 3 Xrotation Yrotation Zrotation
							JOINT RightShoulder
							{
								OFFSET -2.196100 4.412496 0.070690
								CHANNELS 3 Xrotation Yrotation Zrotation
								JOINT RightShoulder_split
								{
									OFFSET -2.196100 4.412496 0.070690
									CHANNELS 3 Xrotation Yrotation Zrotation
									JOINT RightArm
									{
										OFFSET -8.771282 -2.981682 -0.094208
										CHANNELS 3 Xrotation Yrotation Zrotation
										JOINT RightForeArm
										{
											OFFSET -8.494598 0.000000 0.000000
											CHANNELS 3 Xrotation Yrotation Zrotation
											JOINT RightHand
											{
												OFFSET -18.483803 0.000000 0.000001
												CHANNELS 3 Xrotation Yrotation Zrotation
												End Site
												{
													OFFSET 0 0 0
												}
											}
										}
									}
								}
							}
						}
					}
				}
			}
		}
	}
}
MOTION
Frames: 9
Frame Time: 0.03333333
2.790955 34.229393 -6.431046 0.000000 0.000000 0.000000 2.903939 24.737502 1.431254 -6.278408 8.511823 -0.685392 18.654596 7.260075 6.795179 -11.514764 1.095781 -13.443790 -4.842979 -3.268317 5.078755 0.000000 0.000000 0.000000 3.604666 21.255351 1.192495 9.124977 -6.534892 3.829783 8.282950 3.738102 -0.962580 -26.331645 -27.728591 10.894109 3.562904 4.138929 -12.518028 0.000000 0.000000 0.000000 4.512451 25.838775 0.480558 7.714402 1.469913 1.813497 3.390462 2.470108 -1.056819 0.204958 -1.106088 0.129905 0.000000 0.000000 0.000000 3.690639 6.708751 -0.281657 -14.884876 18.167600 9.470322 -127.481478 -58.399292 -163.451167 0.000000 0.000000 0.000000 3.143283 2.423212 -0.284960 -0.949036 -31.322049 -12.219835 2.387936 -0.000659 -5.056138 20.487955 19.655338 -75.558606 -5.567300 -33.513792 -3.306688 0.000000 0.000000 0.000000 -2.056862 2.081229 1.088346 -5.553153 8.242648 19.476522 -17.425194 -8.345117 3.431301 41.470764 8.180504 47.704203 -16.511417 31.260495 26.848191 0.000000 0.000000 0.000000 
2.773130 34.216583 -6.384340 0.000000 0.000000 0.000000 2.936307 24.872431 1.423490 -6.211170 8.474439 -0.687061 18.643848 7.354472 6.799158 -11.564332 1.111567 -13.232356 -4.851129 -3.269345 5.102411 0.000000 0.000000 0.000000 3.580784 21.304658 1.189276 9.144169 -6.557713 3.935654 8.335908 3.631388 -0.990553 -26.420560 -27.755251 10.852326 3.324853 4.214586 -12.593779 0.000000 0.000000 0.000000 4.517496 25.953165 0.486868 7.684763 1.485667 1.747416 3.395650 2.458991 -1.108546 0.229027 -1.117500 0.115785 0.000000 0.000000 0.000000 3.766815 6.717636 -0.238747 -14.906772 18.190237 9.526373 -127.581978 -58.490421 -163.514346 0.000000 0.000000 0.000000 3.138420 2.432052 -0.320055 -0.907102 -31.208104 -12.285078 1.973679 -0.063013 -4.955640 20.744495 19.535063 -75.560395 -5.722833 -33.823329 -3.394185 0.000000 0.000000 0.000000 -2.130463 2.064867 1.168581 -5.510904 8.027916 19.431724 -17.395732 -8.107633 3.502210 41.545128 7.726202 47.976980 -16.485604 31.120879 26.857772 0.000000 0.000000 0.000000 
2.749297 34.206730 -6.330193 0.000000 0.000000 0.000000 3.007047 25.012581 1.360413 -6.201395 8.354295 -0.630058 18.614817 7.535139 6.837885 -11.594849 1.195329 -13.172620 -4.966941 -3.260720 5.101432 0.000000 0.000000 0.000000 3.631072 21.519249 1.112833 9.240889 -6.533159 4.105984 8.271140 3.476764 -0.998159 -26.373380 -27.765347 10.995035 3.011466 4.252208 -12.527651 0.000000 0.000000 0.000000 4.487625 26.135145 0.458435 7.631220 1.517876 1.615409 3.394587 2.542049 -1.068937 0.220885 -1.097536 0.115706 0.000000 0.000000 0.000000 3.856919 6.812499 -0.157423 -14.945813 18.099375 9.605775 -127.875744 -58.610229 -163.421387 0.000000 0.000000 0.000000 3.084029 2.516695 -0.325351 -0.911800 -31.207619 -12.397014 1.636535 -0.214142 -4.774854 20.978894 19.495585 -75.628636 -5.994258 -33.825986 -3.570649 0.000000 0.000000 0.000000 -2.181352 2.155433 1.334067 -5.508584 7.604513 19.365801 -17.381436 -7.838453 3.619193 41.610001 7.153217 48.240793 -16.580076 31.191196 27.070591 0.000000 0.000000 0.000000 
2.726732 34.202450 -6.272520 0.000000 0.000000 0.000000 3.101222 25.114672 1.243760 -6.243759 8.150449 -0.528617 18.574150 7.784216 6.893331 -11.632117 1.329599 -13.269097 -5.153940 -3.243086 5.096153 0.000000 0.000000 0.000000 3.723870 21.791674 0.983606 9.375790 -6.469213 4.310620 8.068684 3.277632 -1.012637 -26.326759 -27.746846 11.220424 2.800078 4.242362 -12.333778 0.000000 0.000000 0.000000 4.450173 26.298308 0.387739 7.559416 1.558355 1.452473 3.391890 2.716910 -0.948678 0.186053 -1.064344 0.120941 0.000000 0.000000 0.000000 3.957952 6.987424 -0.059138 -15.000016 17.896361 9.712225 -128.374321 -58.698810 -163.198696 0.000000 0.000000 0.000000 2.981809 2.673052 -0.299045 -0.959756 -31.345131 -12.511636 1.365565 -0.444609 -4.559182 21.063593 19.521367 -75.669842 -6.326738 -33.457169 -3.797977 0.000000 0.000000 0.000000 -2.212699 2.342303 1.548866 -5.552481 7.027703 19.258149 -17.376686 -7.727544 3.827296 41.655667 6.681449 48.484624 -16.757666 31.512249 27.391500 0.000000 0.000000 0.000000 
2.709042 34.201496 -6.204458 0.000000 0.000000 0.000000 3.222981 25.179340 1.088437 -6.357161 7.862992 -0.419506 18.578026 8.056227 6.965877 -11.678923 1.480223 -13.499665 -5.313618 -3.217637 5.093748 0.000000 0.000000 0.000000 3.833634 22.007189 0.828774 9.504639 -6.402993 4.520230 7.773315 3.013810 -1.055692 -26.373041 -27.697254 11.432168 2.784521 4.188714 -12.045669 0.000000 0.000000 0.000000 4.447802 26.403973 0.256256 7.480456 1.595502 1.299195 3.397012 2.960356 -0.777491 0.155584 -1.000276 0.108514 0.000000 0.000000 0.000000 4.068271 7.223799 0.031170 -15.031062 17.595413 9.841184 -129.117227 -58.687075 -162.964270 0.000000 0.000000 0.000000 2.878319 2.883503 -0.252413 -1.024302 -31.593610 -12.572199 1.283510 -0.678319 -4.382806 20.886688 19.506059 -75.576002 -6.657974 -32.810798 -4.021033 0.000000 0.000000 0.000000 -2.227753 2.601790 1.770720 -5.628214 6.364720 19.053363 -17.308555 -7.827166 4.119148 41.677398 6.463779 48.690988 -16.981831 32.174801 27.754737 0.000000 0.000000 0.000000 
2.695152 34.208439 -6.129284 0.000000 0.000000 0.000000 3.369534 25.244485 0.909127 -6.538601 7.514414 -0.333833 18.664313 8.326624 7.039707 -11.781475 1.607562 -13.781646 -5.396989 -3.191732 5.104932 0.000000 0.000000 0.000000 3.961703 22.064252 0.676314 9.577019 -6.371594 4.706659 7.487452 2.675511 -1.124751 -26.447181 -27.626421 11.660711 2.861881 4.115855 -11.704741 0.000000 0.000000 0.000000 4.493911 26.450789 0.073095 7.418532 1.613662 1.192933 3.415489 3.231480 -0.601613 0.157442 -0.921043 0.096737 0.000000 0.000000 0.000000 4.183620 7.496023 0.088922 -15.013717 17.219523 9.966003 -130.205426 -58.548709 -162.945528 0.000000 0.000000 0.000000 2.810097 3.118986 -0.203774 -1.071087 -31.916521 -12.524717 1.375296 -0.810797 -4.294894 20.410439 19.340796 -75.287502 -6.863884 -32.024233 -4.152073 0.000000 0.000000 0.000000 -2.217814 2.901871 1.954752 -5.720481 5.708251 18.728850 -17.185874 -8.152399 4.450576 41.663761 6.592604 48.927073 -17.188144 33.191031 28.057989 0.000000 0.000000 0.000000 
2.690833 34.215351 -6.062603 0.000000 0.000000 0.000000 3.535537 25.306314 0.714965 -6.758852 7.160944 -0.274839 18.826809 8.596698 7.095241 -11.956422 1.668390 -13.986556 -5.477935 -3.178286 5.147593 0.000000 0.000000 0.000000 4.083268 21.957199 0.541517 9.535245 -6.389283 4.836491 7.332828 2.308298 -1.213609 -26.447473 -27.552647 12.042514 2.807525 4.047534 -11.362083 0.000000 0.000000 0.000000 4.614140 26.414491 -0.147983 7.391797 1.591638 1.158574 3.456725 3.504646 -0.461761 0.171555 -0.839657 0.081716 0.000000 0.000000 0.000000 4.292844 7.781650 0.093785 -14.926255 16.780486 10.074563 -131.715021 -58.296901 -163.349766 0.000000 0.000000 0.000000 2.819295 3.342120 -0.174676 -1.073233 -32.246204 -12.344924 1.607462 -0.774512 -4.394388 19.628620 18.949883 -74.832072 -6.808888 -31.293195 -4.091269 0.000000 0.000000 0.000000 -2.178591 3.211431 2.075161 -5.795096 5.142503 18.331316 -17.084774 -8.530192 4.811497 41.554406 6.909674 49.170464 -17.327949 34.455060 28.218979 0.000000 0.000000 0.000000 
2.692209 34.207916 -6.010218 0.000000 0.000000 0.000000 3.721417 25.298039 0.531485 -7.017508 6.822826 -0.240404 19.077266 8.847036 7.118752 -12.116431 1.639801 -14.071859 -5.638646 -3.186357 5.200549 0.000000 0.000000 0.000000 4.215281 21.748644 0.408038 9.367165 -6.425945 4.910617 7.429519 1.941144 -1.319976 -26.391262 -27.469134 12.604389 2.534549 3.998183 -11.036006 0.000000 0.000000 0.000000 4.789957 26.286031 -0.373352 7.433081 1.509682 1.199945 3.522852 3.752703 -0.384333 0.187603 -0.763624 0.072470 0.000000 0.000000 0.000000 4.387715 8.054472 0.037131 -14.752321 16.325996 10.167132 -133.725364 -57.905333 -164.349364 0.000000 0.000000 0.000000 2.917217 3.533407 -0.170430 -1.014206 -32.514245 -12.030210 1.982905 -0.612734 -4.640074 18.605300 18.374059 -74.319739 -6.414760 -30.745168 -3.771082 0.000000 0.000000 0.000000 -2.104834 3.494211 2.115465 -5.838959 4.743242 17.922850 -17.126771 -8.924564 5.231912 41.260459 7.109413 49.383180 -17.460243 35.919063 28.256703 0.000000 0.000000 0.000000 
2.693611 34.178909 -5.976059 0.000000 0.000000 0.000000 3.921064 25.125527 0.377057 -7.303720 6.537559 -0.214394 19.435327 9.084467 7.095828 -12.220446 1.541060 -14.020947 -5.897971 -3.212065 5.219967 0.000000 0.000000 0.000000 4.364463 21.480218 0.264718 9.068909 -6.473953 4.956395 7.829419 1.563545 -1.443495 -26.409346 -27.332467 13.179099 2.210826 3.963949 -10.693260 0.000000 0.000000 0.000000 5.013012 26.065747 -0.579865 7.581405 1.349298 1.299512 3.605759 3.966191 -0.381969 0.191530 -0.721649 0.069241 0.000000 0.000000 0.000000 4.461361 8.305520 -0.083744 -14.510701 15.905392 10.248806 -136.229243 -57.363754 -165.932766 0.000000 0.000000 0.000000 3.085994 3.690390 -0.187133 -0.900644 -32.684518 -11.637897 2.454309 -0.382692 -4.986944 17.433102 17.796847 -73.873106 -5.621927 -30.452556 -3.162737 0.000000 0.000000 0.000000 -1.993383 3.725208 2.067922 -5.845964 4.573671 17.610251 -17.425891 -9.278102 5.705628 40.723217 6.775969 49.372774 -17.641096 37.446177 28.192010 0.000000 0.000000 0.000000 
